<?xml version="1.0" encoding="UTF-8" standalone="no"?>
<svg
   xmlns:dc="http://purl.org/dc/elements/1.1/"
   xmlns:cc="http://creativecommons.org/ns#"
   xmlns:rdf="http://www.w3.org/1999/02/22-rdf-syntax-ns#"
   xmlns:svg="http://www.w3.org/2000/svg"
   xmlns="http://www.w3.org/2000/svg"
   xmlns:sodipodi="http://sodipodi.sourceforge.net/DTD/sodipodi-0.dtd"
   xmlns:inkscape="http://www.inkscape.org/namespaces/inkscape"
   viewBox="0 0 188.444 162.66667"
   height="162.66667"
   width="188.444"
   xml:space="preserve"
   id="svg2"
   version="1.1"
   inkscape:version="0.91 r13725"
   sodipodi:docname="obspy_logo_no_text.svg"><sodipodi:namedview
     pagecolor="#ffffff"
     bordercolor="#666666"
     borderopacity="1"
     objecttolerance="10"
     gridtolerance="10"
     guidetolerance="10"
     inkscape:pageopacity="0"
     inkscape:pageshadow="2"
     inkscape:window-width="1160"
     inkscape:window-height="749"
     id="namedview85"
     showgrid="false"
     inkscape:zoom="2.9016393"
     inkscape:cx="103.23689"
     inkscape:cy="86.743838"
     inkscape:window-x="77"
     inkscape:window-y="27"
     inkscape:window-maximized="0"
     inkscape:current-layer="svg2" /><metadata
     id="metadata8"><rdf:RDF><cc:Work
         rdf:about=""><dc:format>image/svg+xml</dc:format><dc:type
           rdf:resource="http://purl.org/dc/dcmitype/StillImage" /></cc:Work></rdf:RDF></metadata><defs
     id="defs6"><clipPath
       id="clipPath18"
       clipPathUnits="userSpaceOnUse"><path
         id="path16"
         d="m 17.771,60.596 c 0,-28.371 22.998,-51.368 51.368,-51.368 v 0 c 28.371,0 51.369,22.997 51.369,51.368 v 0 c 0,28.37 -22.998,51.369 -51.369,51.369 v 0 c -28.37,0 -51.368,-22.999 -51.368,-51.369" /></clipPath><radialGradient
       id="radialGradient32"
       spreadMethod="pad"
       gradientTransform="matrix(51.368652,0,0,-51.368652,69.13916,60.596191)"
       gradientUnits="userSpaceOnUse"
       r="1"
       cy="0"
       cx="0"
       fy="0"
       fx="0"><stop
         id="stop24"
         offset="0"
         style="stop-opacity:1;stop-color:#ffd549" /><stop
         id="stop26"
         offset="0.374237"
         style="stop-opacity:1;stop-color:#ffd549" /><stop
         id="stop28"
         offset="0.69623756"
         style="stop-opacity:1;stop-color:#fee87a" /><stop
         id="stop30"
         offset="1"
         style="stop-opacity:1;stop-color:#fee87a" /></radialGradient><clipPath
       id="clipPath42"
       clipPathUnits="userSpaceOnUse"><path
         id="path40"
         d="m 67.93,111.948 c -0.251,-0.004 -0.499,-0.015 -0.75,-0.024 v 0 c -0.132,-0.005 -0.266,-0.01 -0.398,-0.015 v 0 c -0.33,-0.015 -0.657,-0.035 -0.985,-0.055 v 0 c -0.039,-0.003 -0.079,-0.006 -0.118,-0.007 v 0 c -0.362,-0.026 -0.725,-0.053 -1.086,-0.085 v 0 C 83.407,103.636 94.361,90.101 99.056,75.33 v 0 c 6.17,1.353 12.315,2.382 18.312,2.99 v 0 c 0,0 -10e-4,0 -10e-4,0.001 v 0 c -0.205,0.558 -0.423,1.11 -0.647,1.66 v 0 c -0.039,0.095 -0.076,0.188 -0.115,0.283 v 0 c -0.226,0.545 -0.46,1.086 -0.704,1.622 v 0 c -0.025,0.054 -0.052,0.109 -0.077,0.163 v 0 c -0.231,0.503 -0.47,0.999 -0.716,1.491 v 0 c -0.038,0.075 -0.074,0.15 -0.112,0.226 v 0 c -0.265,0.521 -0.538,1.037 -0.818,1.549 v 0 c -0.045,0.079 -0.089,0.158 -0.132,0.236 v 0 c -0.27,0.484 -0.546,0.963 -0.831,1.438 v 0 c -0.025,0.041 -0.049,0.083 -0.073,0.126 v 0 c -0.303,0.5 -0.615,0.994 -0.934,1.483 v 0 c -0.057,0.088 -0.114,0.174 -0.172,0.262 v 0 c -0.647,0.979 -1.325,1.935 -2.035,2.865 v 0 c -0.065,0.085 -0.131,0.171 -0.197,0.256 v 0 c -0.356,0.461 -0.719,0.917 -1.09,1.366 v 0 c -0.022,0.025 -0.044,0.052 -0.066,0.077 v 0 c -0.355,0.428 -0.718,0.847 -1.087,1.263 v 0 c -0.067,0.075 -0.133,0.151 -0.2,0.225 v 0 c -0.384,0.429 -0.776,0.85 -1.174,1.265 v 0 c -0.056,0.059 -0.115,0.117 -0.171,0.175 v 0 c -0.369,0.38 -0.744,0.756 -1.124,1.124 v 0 c -0.059,0.057 -0.117,0.116 -0.176,0.173 v 0 c -0.413,0.395 -0.833,0.785 -1.259,1.168 v 0 c -0.079,0.071 -0.159,0.141 -0.24,0.211 v 0 c -0.407,0.364 -0.821,0.72 -1.241,1.07 v 0 c -0.031,0.026 -0.062,0.054 -0.094,0.08 v 0 c -0.444,0.367 -0.895,0.725 -1.35,1.077 v 0 c -0.094,0.072 -0.187,0.143 -0.282,0.216 v 0 c -0.461,0.351 -0.926,0.698 -1.4,1.035 v 0 c -10e-4,0 -0.004,0.002 -0.006,0.003 v 0 c -0.469,0.333 -0.945,0.656 -1.425,0.973 v 0 c -0.099,0.066 -0.198,0.131 -0.297,0.196 v 0 c -0.48,0.312 -0.963,0.617 -1.453,0.913 v 0 c -0.062,0.038 -0.125,0.073 -0.188,0.111 v 0 c -0.448,0.269 -0.902,0.53 -1.358,0.784 v 0 c -0.096,0.053 -0.192,0.107 -0.288,0.161 v 0 c -0.498,0.274 -1,0.539 -1.508,0.796 v 0 c -0.098,0.05 -0.194,0.096 -0.289,0.144 v 0 c -0.464,0.231 -0.932,0.456 -1.402,0.673 v 0 c -0.077,0.036 -0.154,0.073 -0.232,0.108 v 0 c -0.52,0.238 -1.045,0.464 -1.573,0.683 v 0 c -0.115,0.049 -0.232,0.096 -0.348,0.143 v 0 c -0.516,0.209 -1.034,0.413 -1.557,0.606 v 0 c -0.028,0.011 -0.057,0.023 -0.086,0.033 v 0 c -0.545,0.201 -1.096,0.387 -1.649,0.57 v 0 c -0.126,0.042 -0.251,0.082 -0.376,0.122 v 0 c -0.553,0.177 -1.111,0.348 -1.67,0.506 v 0 c -0.049,0.014 -0.097,0.026 -0.145,0.039 v 0 c -0.526,0.148 -1.055,0.284 -1.587,0.414 v 0 c -0.125,0.032 -0.25,0.062 -0.376,0.093 v 0 c -0.564,0.133 -1.13,0.259 -1.7,0.373 v 0 c -0.099,0.02 -0.199,0.038 -0.298,0.058 v 0 c -0.511,0.1 -1.027,0.192 -1.544,0.277 v 0 c -0.112,0.018 -0.224,0.037 -0.336,0.055 v 0 c -0.577,0.09 -1.158,0.171 -1.741,0.243 v 0 c -0.126,0.014 -0.253,0.028 -0.379,0.042 v 0 c -0.535,0.061 -1.074,0.115 -1.616,0.16 v 0 c -0.077,0.007 -0.154,0.015 -0.233,0.021 v 0 c -0.594,0.047 -1.193,0.079 -1.791,0.106 v 0 c -0.141,0.006 -0.28,0.011 -0.419,0.016 v 0 c -0.612,0.022 -1.224,0.037 -1.841,0.037 v 0 c -0.403,0 -0.807,-0.007 -1.209,-0.017 M 20.742,43.345 C 27.83,23.461 46.821,9.228 69.139,9.228 v 0 c 2.487,0 4.932,0.179 7.325,0.522 v 0 c 20.453,11.776 30.576,40.465 22.592,65.58 v 0 C 68.458,68.619 37.266,53.948 20.742,43.345" /></clipPath><radialGradient
       id="radialGradient56"
       spreadMethod="pad"
       gradientTransform="matrix(49.863998,0,0,-49.863998,69.055176,60.596191)"
       gradientUnits="userSpaceOnUse"
       r="1"
       cy="0"
       cx="0"
       fy="0"
       fx="0"><stop
         id="stop48"
         offset="0"
         style="stop-opacity:1;stop-color:#63a2d4" /><stop
         id="stop50"
         offset="0.374237"
         style="stop-opacity:1;stop-color:#63a2d4" /><stop
         id="stop52"
         offset="0.69623756"
         style="stop-opacity:1;stop-color:#3f709c" /><stop
         id="stop54"
         offset="1"
         style="stop-opacity:1;stop-color:#3f709c" /></radialGradient><clipPath
       id="clipPath66"
       clipPathUnits="userSpaceOnUse"><path
         id="path64"
         d="M 0,122 H 141.333 V 0 H 0 Z" /></clipPath><clipPath
       id="clipPath74"
       clipPathUnits="userSpaceOnUse"><path
         id="path72"
         d="M 17.6865,111.964 H 120.424 V 9.22754 H 17.6865 Z" /></clipPath><clipPath
       id="clipPath78"
       clipPathUnits="userSpaceOnUse"><path
         id="path76"
         d="m 120.424,60.596 c 0,-28.37 -22.999,-51.368 -51.368,-51.368 -28.371,0 -51.369,22.998 -51.369,51.368 0,28.37 22.998,51.368 51.369,51.368 28.369,0 51.368,-22.998 51.368,-51.368" /></clipPath><clipPath
       id="clipPath82"
       clipPathUnits="userSpaceOnUse"><path
         id="path80"
         d="M -32767,32767 H 32767 V -32767 H -32767 Z" /></clipPath><radialGradient
       id="radialGradient96"
       spreadMethod="pad"
       gradientTransform="matrix(-60.141495,-0.9854126,-0.7597046,46.366455,69.055176,58.088867)"
       gradientUnits="userSpaceOnUse"
       r="1"
       cy="0"
       cx="0"
       fy="0.72997999"
       fx="0.368256"><stop
         id="stop84"
         offset="0"
         style="stop-opacity:0;stop-color:#ffffff" /><stop
         id="stop86"
         offset="0.453995"
         style="stop-opacity:0;stop-color:#ffffff" /><stop
         id="stop88"
         offset="0.687119"
         style="stop-opacity:0.13470665;stop-color:#ffffff" /><stop
         id="stop90"
         offset="0.80368"
         style="stop-opacity:0.25258259;stop-color:#ffffff" /><stop
         id="stop92"
         offset="0.950912"
         style="stop-opacity:0.48999771;stop-color:#ffffff" /><stop
         id="stop94"
         offset="1"
         style="stop-opacity:0.48999771;stop-color:#ffffff" /></radialGradient><mask
       id="mask98"
       height="1"
       width="1"
       y="0"
       x="0"
       maskUnits="userSpaceOnUse"><g
         id="g108"><g
           id="g106"
           clip-path="url(#clipPath82)"><g
             id="g104"><g
               id="g102"><path
                 id="path100"
                 style="fill:url(#radialGradient96);stroke:none"
                 d="M -32767,32767 H 32767 V -32767 H -32767 Z" /></g></g></g></g></mask><radialGradient
       id="radialGradient122"
       spreadMethod="pad"
       gradientTransform="matrix(-60.141495,-0.9854126,-0.7597046,46.366455,69.055176,58.088867)"
       gradientUnits="userSpaceOnUse"
       r="1"
       cy="0"
       cx="0"
       fy="0.72997999"
       fx="0.368256"><stop
         id="stop110"
         offset="0"
         style="stop-opacity:1;stop-color:#373535" /><stop
         id="stop112"
         offset="0.453995"
         style="stop-opacity:1;stop-color:#373535" /><stop
         id="stop114"
         offset="0.687119"
         style="stop-opacity:1;stop-color:#373535" /><stop
         id="stop116"
         offset="0.80368"
         style="stop-opacity:1;stop-color:#373535" /><stop
         id="stop118"
         offset="0.950912"
         style="stop-opacity:1;stop-color:#373535" /><stop
         id="stop120"
         offset="1"
         style="stop-opacity:1;stop-color:#373535" /></radialGradient><clipPath
       id="clipPath148"
       clipPathUnits="userSpaceOnUse"><path
         id="path146"
         d="M 0,122 H 141.333 V 0 H 0 Z" /></clipPath><clipPath
       id="clipPath156"
       clipPathUnits="userSpaceOnUse"><path
         id="path154"
         d="M 1.84814,119.892 H 139.717 V 1.49121 H 1.84814 Z" /></clipPath></defs><g
     transform="matrix(1.3333333,0,0,-1.3333333,0,162.66667)"
     id="g10"><g
       id="g12"><g
         clip-path="url(#clipPath18)"
         id="g14"><g
           id="g20"><g
             id="g22"><path
               id="path34"
               style="fill:url(#radialGradient32);stroke:none"
               d="m 17.771,60.596 c 0,-28.371 22.998,-51.368 51.368,-51.368 v 0 c 28.371,0 51.369,22.997 51.369,51.368 v 0 c 0,28.37 -22.998,51.369 -51.369,51.369 v 0 c -28.37,0 -51.368,-22.999 -51.368,-51.369" /></g></g></g></g><g
       id="g36"><g
         clip-path="url(#clipPath42)"
         id="g38"><g
           id="g44"><g
             id="g46"><path
               id="path58"
               style="fill:url(#radialGradient56);stroke:none"
               d="m 67.93,111.948 c -0.251,-0.004 -0.499,-0.015 -0.75,-0.024 v 0 c -0.132,-0.005 -0.266,-0.01 -0.398,-0.015 v 0 c -0.33,-0.015 -0.657,-0.035 -0.985,-0.055 v 0 c -0.039,-0.003 -0.079,-0.006 -0.118,-0.007 v 0 c -0.362,-0.026 -0.725,-0.053 -1.086,-0.085 v 0 C 83.407,103.636 94.361,90.101 99.056,75.33 v 0 c 6.17,1.353 12.315,2.382 18.312,2.99 v 0 c 0,0 -10e-4,0 -10e-4,0.001 v 0 c -0.205,0.558 -0.423,1.11 -0.647,1.66 v 0 c -0.039,0.095 -0.076,0.188 -0.115,0.283 v 0 c -0.226,0.545 -0.46,1.086 -0.704,1.622 v 0 c -0.025,0.054 -0.052,0.109 -0.077,0.163 v 0 c -0.231,0.503 -0.47,0.999 -0.716,1.491 v 0 c -0.038,0.075 -0.074,0.15 -0.112,0.226 v 0 c -0.265,0.521 -0.538,1.037 -0.818,1.549 v 0 c -0.045,0.079 -0.089,0.158 -0.132,0.236 v 0 c -0.27,0.484 -0.546,0.963 -0.831,1.438 v 0 c -0.025,0.041 -0.049,0.083 -0.073,0.126 v 0 c -0.303,0.5 -0.615,0.994 -0.934,1.483 v 0 c -0.057,0.088 -0.114,0.174 -0.172,0.262 v 0 c -0.647,0.979 -1.325,1.935 -2.035,2.865 v 0 c -0.065,0.085 -0.131,0.171 -0.197,0.256 v 0 c -0.356,0.461 -0.719,0.917 -1.09,1.366 v 0 c -0.022,0.025 -0.044,0.052 -0.066,0.077 v 0 c -0.355,0.428 -0.718,0.847 -1.087,1.263 v 0 c -0.067,0.075 -0.133,0.151 -0.2,0.225 v 0 c -0.384,0.429 -0.776,0.85 -1.174,1.265 v 0 c -0.056,0.059 -0.115,0.117 -0.171,0.175 v 0 c -0.369,0.38 -0.744,0.756 -1.124,1.124 v 0 c -0.059,0.057 -0.117,0.116 -0.176,0.173 v 0 c -0.413,0.395 -0.833,0.785 -1.259,1.168 v 0 c -0.079,0.071 -0.159,0.141 -0.24,0.211 v 0 c -0.407,0.364 -0.821,0.72 -1.241,1.07 v 0 c -0.031,0.026 -0.062,0.054 -0.094,0.08 v 0 c -0.444,0.367 -0.895,0.725 -1.35,1.077 v 0 c -0.094,0.072 -0.187,0.143 -0.282,0.216 v 0 c -0.461,0.351 -0.926,0.698 -1.4,1.035 v 0 c -10e-4,0 -0.004,0.002 -0.006,0.003 v 0 c -0.469,0.333 -0.945,0.656 -1.425,0.973 v 0 c -0.099,0.066 -0.198,0.131 -0.297,0.196 v 0 c -0.48,0.312 -0.963,0.617 -1.453,0.913 v 0 c -0.062,0.038 -0.125,0.073 -0.188,0.111 v 0 c -0.448,0.269 -0.902,0.53 -1.358,0.784 v 0 c -0.096,0.053 -0.192,0.107 -0.288,0.161 v 0 c -0.498,0.274 -1,0.539 -1.508,0.796 v 0 c -0.098,0.05 -0.194,0.096 -0.289,0.144 v 0 c -0.464,0.231 -0.932,0.456 -1.402,0.673 v 0 c -0.077,0.036 -0.154,0.073 -0.232,0.108 v 0 c -0.52,0.238 -1.045,0.464 -1.573,0.683 v 0 c -0.115,0.049 -0.232,0.096 -0.348,0.143 v 0 c -0.516,0.209 -1.034,0.413 -1.557,0.606 v 0 c -0.028,0.011 -0.057,0.023 -0.086,0.033 v 0 c -0.545,0.201 -1.096,0.387 -1.649,0.57 v 0 c -0.126,0.042 -0.251,0.082 -0.376,0.122 v 0 c -0.553,0.177 -1.111,0.348 -1.67,0.506 v 0 c -0.049,0.014 -0.097,0.026 -0.145,0.039 v 0 c -0.526,0.148 -1.055,0.284 -1.587,0.414 v 0 c -0.125,0.032 -0.25,0.062 -0.376,0.093 v 0 c -0.564,0.133 -1.13,0.259 -1.7,0.373 v 0 c -0.099,0.02 -0.199,0.038 -0.298,0.058 v 0 c -0.511,0.1 -1.027,0.192 -1.544,0.277 v 0 c -0.112,0.018 -0.224,0.037 -0.336,0.055 v 0 c -0.577,0.09 -1.158,0.171 -1.741,0.243 v 0 c -0.126,0.014 -0.253,0.028 -0.379,0.042 v 0 c -0.535,0.061 -1.074,0.115 -1.616,0.16 v 0 c -0.077,0.007 -0.154,0.015 -0.233,0.021 v 0 c -0.594,0.047 -1.193,0.079 -1.791,0.106 v 0 c -0.141,0.006 -0.28,0.011 -0.419,0.016 v 0 c -0.612,0.022 -1.224,0.037 -1.841,0.037 v 0 c -0.403,0 -0.807,-0.007 -1.209,-0.017 M 20.742,43.345 C 27.83,23.461 46.821,9.228 69.139,9.228 v 0 c 2.487,0 4.932,0.179 7.325,0.522 v 0 c 20.453,11.776 30.576,40.465 22.592,65.58 v 0 C 68.458,68.619 37.266,53.948 20.742,43.345" /></g></g></g></g><g
       id="g60"><g
         clip-path="url(#clipPath66)"
         id="g62"><g
           id="g68"><g
             id="g70" /><g
             id="g140"><g
               style="opacity:0.78999299"
               id="g138"
               clip-path="url(#clipPath74)"><g
                 id="g136"><g
                   id="g134"
                   clip-path="url(#clipPath78)"><g
                     id="g132"><g
                       id="g124" /><g
                       id="g130"
                       mask="url(#mask98)"><g
                         id="g128"><path
                           id="path126"
                           style="fill:url(#radialGradient122);stroke:none"
                           d="m 120.424,60.596 c 0,-28.37 -22.999,-51.368 -51.368,-51.368 -28.371,0 -51.369,22.998 -51.369,51.368 0,28.37 22.998,51.368 51.369,51.368 28.369,0 51.368,-22.998 51.368,-51.368" /></g></g></g></g></g></g></g></g></g></g><g
       id="g142"><g
         clip-path="url(#clipPath148)"
         id="g144"><g
           id="g150"><g
             id="g152" /><g
             id="g168"><g
               id="g166"
               clip-path="url(#clipPath156)"><g
                 id="g160"
                 transform="translate(138.1968,60.7036)"><path
                   id="path158"
                   style="fill:#373535;fill-opacity:1;fill-rule:nonzero;stroke:none"
                   d="m 0,0 -0.238,0.26 -2.605,-2.941 -2.712,-0.011 -0.02,1.431 -5.805,3.229 0.028,-3.284 c 0,0 -23.312,0.476 -25.34,0.536 -0.503,0.016 -1.043,-0.024 -2.162,0.253 -3.958,0.937 -7.769,15.9 -7.769,15.9 l -6.711,-30.868 -8.266,65.177 -7.675,-72.271 -7.551,63.015 -7.55,-54.21 -7.551,36.471 c 0,0 -6.042,-19.921 -6.832,-21.426 -0.199,-0.375 -0.406,-0.733 -0.629,-1.067 -0.112,-0.165 -0.228,-0.332 -0.349,-0.477 -0.097,-0.118 -0.161,-0.187 -0.242,-0.272 -0.077,-0.079 -0.153,-0.15 -0.226,-0.212 -0.049,-0.04 -0.024,-0.025 -0.108,-0.087 -0.027,-0.022 -0.084,-0.059 -0.124,-0.088 -0.183,-0.122 -0.387,-0.238 -0.606,-0.344 -0.677,-0.332 -1.673,-0.657 -2.875,-0.905 -1.202,-0.252 -2.604,-0.439 -4.107,-0.561 -3.008,-0.245 -6.412,-0.241 -9.581,-0.128 -6.349,0.23 -17.647,0.053 -17.643,0.047 l 17.538,-2.128 c 3.178,-0.424 6.615,-0.749 9.767,-0.762 3.147,-0.015 6.029,0.3 8.005,1.153 0.317,0.135 0.637,0.292 0.955,0.484 0.323,0.194 0.661,0.457 0.929,0.711 0.134,0.124 0.276,0.272 0.383,0.387 0.089,0.095 0.168,0.186 0.248,0.283 0.158,0.192 0.307,0.393 0.448,0.6 0.563,0.827 1.022,1.731 1.439,2.661 0.828,1.867 2.771,6.786 2.771,6.786 0.002,0 8.39,-44.517 8.39,-44.517 l 7.55,47.188 7.551,-60.216 8.095,67.112 7.007,-53.037 8.389,38.766 c 0.002,0.016 1.101,-4.307 3.724,-6.152 0.237,-0.177 0.993,-0.59 1.644,-0.8 0.337,-0.11 0.679,-0.2 1.024,-0.26 0.441,-0.071 0.694,-0.075 0.989,-0.095 0.565,-0.029 1.094,-0.042 1.62,-0.055 2.09,-0.04 25.46,0.123 25.46,0.123 l 0.03,-3.284 5.753,3.341 -0.004,1.45 2.713,0.013 2.697,-3.13 0.219,0.263 -2.606,3.079 z" /></g><g
                 id="g164"
                 transform="translate(138.1968,60.7036)"><path
                   id="path162"
                   style="fill:none;stroke:#373535;stroke-width:2.20000005;stroke-linecap:butt;stroke-linejoin:miter;stroke-miterlimit:10;stroke-dasharray:none;stroke-opacity:1"
                   d="m 0,0 -0.238,0.26 -2.605,-2.941 -2.712,-0.011 -0.02,1.431 -5.805,3.229 0.028,-3.284 c 0,0 -23.312,0.476 -25.34,0.536 -0.503,0.016 -1.043,-0.024 -2.162,0.253 -3.958,0.937 -7.769,15.9 -7.769,15.9 l -6.711,-30.868 -8.266,65.177 -7.675,-72.271 -7.551,63.015 -7.55,-54.21 -7.551,36.471 c 0,0 -6.042,-19.921 -6.832,-21.426 -0.199,-0.375 -0.406,-0.733 -0.629,-1.067 -0.112,-0.165 -0.228,-0.332 -0.349,-0.477 -0.097,-0.118 -0.161,-0.187 -0.242,-0.272 -0.077,-0.079 -0.153,-0.15 -0.226,-0.212 -0.049,-0.04 -0.024,-0.025 -0.108,-0.087 -0.027,-0.022 -0.084,-0.059 -0.124,-0.088 -0.183,-0.122 -0.387,-0.238 -0.606,-0.344 -0.677,-0.332 -1.673,-0.657 -2.875,-0.905 -1.202,-0.252 -2.604,-0.439 -4.107,-0.561 -3.008,-0.245 -6.412,-0.241 -9.581,-0.128 -19.14284,0.047231 -17.643,0.047 -17.643,0.047 0,0 -2.10968,0.06523 17.538,-2.128 3.178,-0.424 6.615,-0.749 9.767,-0.762 3.147,-0.015 6.029,0.3 8.005,1.153 0.317,0.135 0.637,0.292 0.955,0.484 0.323,0.194 0.661,0.457 0.929,0.711 0.134,0.124 0.276,0.272 0.383,0.387 0.089,0.095 0.168,0.186 0.248,0.283 0.158,0.192 0.307,0.393 0.448,0.6 0.563,0.827 1.022,1.731 1.439,2.661 0.828,1.867 2.771,6.786 2.771,6.786 l 8.39,-44.517 7.55,47.188 7.551,-60.216 8.095,67.112 7.007,-53.037 8.389,38.766 c 0.002,0.016 1.101,-4.307 3.724,-6.152 0.237,-0.177 0.993,-0.59 1.644,-0.8 0.337,-0.11 0.679,-0.2 1.024,-0.26 0.441,-0.071 0.694,-0.075 0.989,-0.095 0.565,-0.029 1.094,-0.042 1.62,-0.055 2.09,-0.04 25.46,0.123 25.46,0.123 l 0.03,-3.284 5.753,3.341 -0.004,1.45 2.713,0.013 2.697,-3.13 0.219,0.263 -2.606,3.079 z"
                   inkscape:connector-curvature="0"
                   sodipodi:nodetypes="cccccccccccccccccccccccccccccccccccccccccccccccccccccccccc" /></g></g></g></g></g></g></g></svg>