<?xml version="1.0" encoding="UTF-8" standalone="no"?>
<!-- Generator: Adobe Illustrator 15.0.3, SVG Export Plug-In . SVG Version: 6.00 Build 0)  -->

<svg
   xmlns:dc="http://purl.org/dc/elements/1.1/"
   xmlns:cc="http://creativecommons.org/ns#"
   xmlns:rdf="http://www.w3.org/1999/02/22-rdf-syntax-ns#"
   xmlns:svg="http://www.w3.org/2000/svg"
   xmlns="http://www.w3.org/2000/svg"
   xmlns:sodipodi="http://sodipodi.sourceforge.net/DTD/sodipodi-0.dtd"
   xmlns:inkscape="http://www.inkscape.org/namespaces/inkscape"
   version="1.1"
   id="svg2"
   sodipodi:docname="obspy_powered_tall.svg"
   inkscape:version="0.91 r13725"
   x="0px"
   y="0px"
   width="180"
   height="240"
   viewBox="0 0 180 240"
   enable-background="new 0 0 140 140"
   xml:space="preserve"
   inkscape:export-filename="/home/megies/git/obspy.website/logo/obspy_powered_wide_170x70.png"
   inkscape:export-xdpi="45"
   inkscape:export-ydpi="45"><metadata
     id="metadata4555"><rdf:RDF><cc:Work
         rdf:about=""><dc:format>image/svg+xml</dc:format><dc:type
           rdf:resource="http://purl.org/dc/dcmitype/StillImage" /><dc:title></dc:title></cc:Work></rdf:RDF></metadata><defs
     id="defs4553" /><sodipodi:namedview
     id="namedview131"
     inkscape:cy="128.58455"
     inkscape:cx="103.15889"
     inkscape:zoom="1.4506574"
     showgrid="false"
     guidetolerance="10"
     gridtolerance="10"
     objecttolerance="10"
     borderopacity="1"
     bordercolor="#666666"
     pagecolor="#ffffff"
     inkscape:window-maximized="1"
     inkscape:current-layer="layer2"
     inkscape:window-y="27"
     inkscape:window-x="0"
     inkscape:window-height="833"
     inkscape:window-width="1600"
     inkscape:pageshadow="2"
     inkscape:pageopacity="0"
     fit-margin-left="11.5"
     fit-margin-top="15"
     fit-margin-bottom="13"
     fit-margin-right="11.5"
     showguides="true"
     inkscape:guide-bbox="true" /><g
     id="layer3"
     transform="translate(17.161955,66.243677)"
     inkscape:groupmode="layer"
     inkscape:label="ball"
     style="display:inline"
     sodipodi:insensitive="true"><g
       id="Beachball"><radialGradient
         id="circle16_1_"
         cx="66.997101"
         cy="45.946499"
         r="51.368198"
         gradientTransform="matrix(1,0,0,-1,4.8643,105.2426)"
         gradientUnits="userSpaceOnUse"><stop
           offset="0.3742"
           style="stop-color:#FFD43C"
           id="stop4482" /><stop
           offset="0.4671"
           style="stop-color:#FFD94C"
           id="stop4484" /><stop
           offset="0.6483"
           style="stop-color:#FEE163"
           id="stop4486" /><stop
           offset="0.8273"
           style="stop-color:#FEE670"
           id="stop4488" /><stop
           offset="1"
           style="stop-color:#FEE774"
           id="stop4490" /></radialGradient><circle
         id="circle16"
         cx="71.861"
         cy="59.296001"
         r="51.368"
         style="fill:url(#circle16_1_)" /><radialGradient
         id="path31_1_"
         cx="66.912201"
         cy="45.947399"
         r="49.864201"
         gradientTransform="matrix(1,0,0,-1,4.8643,105.2426)"
         gradientUnits="userSpaceOnUse"><stop
           offset="0.3742"
           style="stop-color:#5B9FD3"
           id="stop4494" /><stop
           offset="0.4296"
           style="stop-color:#5595C7"
           id="stop4496" /><stop
           offset="0.5751"
           style="stop-color:#4680B1"
           id="stop4498" /><stop
           offset="0.7199"
           style="stop-color:#3A73A3"
           id="stop4500" /><stop
           offset="0.8625"
           style="stop-color:#336C9B"
           id="stop4502" /><stop
           offset="1"
           style="stop-color:#306A99"
           id="stop4504" /></radialGradient><path
         id="path31"
         inkscape:connector-curvature="0"
         d="m 79.187,110.142 c -2.394,0.344 -4.838,0.522 -7.326,0.522 -22.318,0 -41.309,-14.233 -48.397,-34.118 16.524,-10.604 47.716,-25.273 78.314,-31.984 7.983,25.114 -2.138,53.804 -22.591,65.58 z M 69.902,7.968 c -0.133,0.005 -0.267,0.01 -0.399,0.015 -0.329,0.015 -0.657,0.034 -0.985,0.055 -0.04,0.002 -0.079,0.005 -0.118,0.007 -0.363,0.024 -0.725,0.053 -1.086,0.084 18.813,8.126 29.767,21.661 34.462,36.433 6.17,-1.353 12.315,-2.382 18.313,-2.99 0,0 0,0 0,-0.001 -0.206,-0.558 -0.423,-1.111 -0.646,-1.661 -0.039,-0.094 -0.078,-0.188 -0.115,-0.282 -0.227,-0.545 -0.46,-1.086 -0.704,-1.622 -0.024,-0.055 -0.052,-0.109 -0.077,-0.165 -0.23,-0.501 -0.47,-0.998 -0.716,-1.49 -0.038,-0.075 -0.075,-0.151 -0.112,-0.226 -0.265,-0.521 -0.537,-1.038 -0.818,-1.549 -0.043,-0.079 -0.088,-0.158 -0.131,-0.236 -0.271,-0.483 -0.547,-0.963 -0.832,-1.437 -0.024,-0.042 -0.049,-0.084 -0.074,-0.126 -0.301,-0.5 -0.614,-0.995 -0.934,-1.483 -0.057,-0.088 -0.113,-0.174 -0.171,-0.261 -0.647,-0.979 -1.325,-1.935 -2.034,-2.866 -0.066,-0.085 -0.131,-0.171 -0.199,-0.256 -0.354,-0.46 -0.717,-0.917 -1.088,-1.366 -0.021,-0.026 -0.045,-0.052 -0.066,-0.078 -0.355,-0.428 -0.719,-0.847 -1.087,-1.263 -0.066,-0.075 -0.132,-0.151 -0.2,-0.226 -0.385,-0.428 -0.775,-0.85 -1.174,-1.264 -0.057,-0.06 -0.115,-0.118 -0.172,-0.176 -0.368,-0.38 -0.742,-0.755 -1.123,-1.124 -0.059,-0.057 -0.117,-0.115 -0.176,-0.173 -0.414,-0.396 -0.834,-0.785 -1.26,-1.168 -0.078,-0.071 -0.158,-0.141 -0.238,-0.211 -0.408,-0.363 -0.822,-0.72 -1.242,-1.07 -0.031,-0.026 -0.063,-0.054 -0.094,-0.08 -0.443,-0.367 -0.896,-0.725 -1.351,-1.076 -0.093,-0.072 -0.187,-0.145 -0.28,-0.217 -0.462,-0.352 -0.928,-0.698 -1.402,-1.034 0,-0.001 -0.002,-0.002 -0.004,-0.003 -0.469,-0.333 -0.945,-0.656 -1.426,-0.973 -0.1,-0.065 -0.199,-0.131 -0.298,-0.196 C 99.366,15.901 98.882,15.596 98.393,15.3 98.33,15.262 98.268,15.227 98.205,15.189 97.756,14.92 97.303,14.659 96.846,14.404 96.75,14.351 96.656,14.297 96.558,14.243 96.06,13.969 95.558,13.704 95.049,13.447 94.952,13.398 94.857,13.351 94.76,13.303 94.297,13.072 93.829,12.847 93.359,12.63 93.281,12.594 93.205,12.557 93.128,12.522 92.607,12.285 92.083,12.058 91.554,11.839 91.44,11.79 91.323,11.744 91.206,11.695 90.691,11.487 90.173,11.283 89.648,11.09 89.621,11.079 89.591,11.068 89.564,11.057 89.017,10.856 88.467,10.669 87.915,10.486 87.789,10.444 87.664,10.404 87.539,10.364 86.984,10.187 86.428,10.016 85.869,9.858 85.82,9.844 85.771,9.833 85.724,9.819 85.197,9.672 84.668,9.535 84.136,9.405 84.011,9.374 83.886,9.343 83.76,9.313 83.197,9.18 82.63,9.054 82.06,8.939 81.961,8.919 81.861,8.901 81.762,8.881 81.25,8.781 80.736,8.689 80.219,8.604 80.107,8.586 79.995,8.567 79.882,8.548 79.305,8.459 78.726,8.377 78.142,8.306 78.017,8.291 77.889,8.278 77.763,8.263 77.228,8.202 76.689,8.148 76.148,8.103 76.07,8.1 75.992,8.092 75.915,8.085 75.32,8.039 74.723,8.005 74.123,7.979 73.982,7.974 73.844,7.968 73.705,7.962 73.094,7.941 72.481,7.926 71.864,7.926 c -0.404,0 -0.807,0.006 -1.209,0.016 -0.254,0.006 -0.503,0.016 -0.753,0.026 z"
         style="fill:url(#path31_1_)" /><circle
         id="circle33"
         cx="71.861"
         cy="59.296001"
         r="51.368"
         style="fill:none" /><g
         id="g46" /></g></g><g
     id="layer12"
     transform="translate(17.161955,66.243677)"
     inkscape:groupmode="layer"
     inkscape:label="ball trash 2"
     style="display:none"
     sodipodi:insensitive="true" /><g
     id="g4680"
     transform="translate(17.161955,66.243677)"
     inkscape:groupmode="layer"
     inkscape:label="snake white"
     style="display:inline"
     sodipodi:insensitive="true"><path
       id="circle4682"
       inkscape:connector-curvature="0"
       d="M 78.332,8.389 71.578,71.983 64.176,10.202 56.33,66.524 49.193,32.047 47.939,36.182 c 0,0 -1.509,4.977 -3.117,10.141 -0.804,2.582 -1.634,5.21 -2.309,7.281 -0.337,1.035 -0.637,1.932 -0.873,2.607 -0.236,0.675 -0.455,1.204 -0.455,1.205 -0.186,0.35 -0.376,0.674 -0.57,0.965 -0.107,0.157 -0.206,0.296 -0.279,0.385 l -0.002,0.004 -0.002,0.004 c -0.08,0.097 -0.113,0.129 -0.186,0.205 -0.049,0.05 -0.098,0.095 -0.146,0.137 -0.014,0.013 10e-4,0.005 -0.047,0.041 l -0.021,0.016 -0.02,0.016 c 0.066,-0.054 -10e-4,-0.002 -0.047,0.031 -0.132,0.088 -0.291,0.177 -0.469,0.264 l -0.004,0.002 -0.002,0.002 c -0.549,0.269 -1.479,0.581 -2.613,0.816 l -0.002,0 -0.002,0 c -1.14,0.239 -2.502,0.421 -3.971,0.541 -2.939,0.239 -6.309,0.237 -9.451,0.125 -0.801,-0.029 -1.856,-0.042 -2.803,-0.063 0.053,1.358 0.16,2.716 0.32,4.066 l 2.205,0.268 -0.013,0 c 3.208,0.428 6.685,0.759 9.911,0.771 3.22,0.015 6.197,-0.275 8.439,-1.242 l 0.003,-0.002 c 0.353,-0.15 0.718,-0.329 1.086,-0.551 l 0.002,-0.002 c 0.407,-0.245 0.791,-0.543 1.119,-0.855 0.164,-0.153 0.314,-0.31 0.428,-0.432 l 0.002,-0.002 c 0.108,-0.116 0.201,-0.226 0.287,-0.328 l 0.002,-0.003 0.002,-0.002 c 0.186,-0.224 0.353,-0.45 0.508,-0.676 l 0,-0.002 0.002,-0.004 c 0.617,-0.906 1.103,-1.868 1.533,-2.83 l 0,-0.001 0.002,-0.002 c 0.423,-0.953 0.788,-1.908 1.371,-3.355 l 8.873,47.465 7.334,-46.191 6.723,53.609 c 0.391,0.024 0.782,0.044 1.174,0.059 0.248,-0.007 0.495,-0.015 0.742,-0.025 l 7.186,-59.58 6.693,50.672 8.99,-41.535 c 0.633,1.206 1.454,2.484 2.74,3.395 0.478,0.354 1.142,0.697 1.951,0.959 0.376,0.121 0.767,0.226 1.174,0.297 l 0.008,0.002 0.007,0 c 0.499,0.08 0.826,0.089 1.09,0.107 l 0.01,0 0.01,0 c 0.583,0.03 1.125,0.044 1.65,0.057 l 0.002,0 0.004,0 c 1.152,0.022 7.437,-0.011 13.541,-0.047 2.676,-0.016 3.363,-0.021 5.238,-0.033 0.214,-1.871 0.324,-3.752 0.332,-5.635 0,-0.009 0,-0.019 0,-0.027 -6.41,-0.132 -17.496,-0.357 -18.963,-0.4 l -0.006,0 c -0.586,-0.02 -0.918,0.027 -1.93,-0.223 l -0.008,0 -0.004,-0.002 c -0.391,-0.092 -1.338,-0.935 -2.193,-2.373 -0.857,-1.438 -1.69,-3.351 -2.4,-5.244 -1.422,-3.788 -2.363,-7.484 -2.363,-7.484 L 94.211,39.03 87.869,68.194 80.324,8.69 C 79.662,8.576 78.998,8.476 78.332,8.389 Z"
       style="fill:#ffffff" /></g><g
     id="layer11"
     transform="translate(17.161955,66.243677)"
     inkscape:groupmode="layer"
     inkscape:label="snake black"
     style="display:inline"
     sodipodi:insensitive="true"><path
       id="circle4717"
       inkscape:connector-curvature="0"
       d="m 79.223,0 -0.891,8.389 c 0.666,0.087 1.33,0.188 1.992,0.301 L 79.223,0 Z m -7.362,7.928 c 0.832,0.021 1.663,0.063 2.492,0.125 -0.829,-0.062 -1.66,-0.104 -2.492,-0.125 z m -4.367,0.219 c -0.869,0.083 -1.736,0.188 -2.6,0.314 0.864,-0.127 1.731,-0.232 2.6,-0.314 z m -5.078,0.689 c -0.865,0.171 -1.725,0.364 -2.58,0.58 0.855,-0.216 1.715,-0.409 2.58,-0.58 z m -4.977,1.192 c -0.851,0.258 -1.695,0.538 -2.531,0.84 0.837,-0.302 1.68,-0.583 2.531,-0.84 z m -4.859,1.691 c -0.801,0.334 -1.594,0.688 -2.377,1.063 0.783,-0.375 1.576,-0.729 2.377,-1.063 z m -4.664,2.168 c -0.77,0.415 -1.528,0.851 -2.275,1.305 0.747,-0.455 1.506,-0.89 2.275,-1.305 z m 51.49,2.119 c 0.064,0.04 0.129,0.079 0.193,0.119 -0.064,-0.04 -0.128,-0.079 -0.193,-0.119 z M 43.52,16.492 c -0.729,0.493 -1.446,1.005 -2.148,1.535 0.702,-0.53 1.419,-1.041 2.148,-1.535 z m 60.003,2.43 c 0.095,0.071 0.188,0.143 0.283,0.215 -0.094,-0.072 -0.188,-0.144 -0.283,-0.215 z m -64.146,0.621 c -0.67,0.559 -1.326,1.136 -1.967,1.729 0.641,-0.593 1.297,-1.17 1.967,-1.729 z m 67.949,2.676 c 0.123,0.113 0.245,0.227 0.367,0.342 -0.122,-0.115 -0.244,-0.229 -0.367,-0.342 z m -71.754,0.766 c -0.609,0.621 -1.203,1.257 -1.779,1.908 0.577,-0.652 1.17,-1.288 1.779,-1.908 z m 75.188,2.855 c 0.157,0.176 0.313,0.354 0.467,0.533 -0.155,-0.179 -0.31,-0.357 -0.467,-0.533 z m -78.637,0.955 c -0.538,0.671 -1.059,1.355 -1.563,2.053 0.504,-0.697 1.025,-1.382 1.563,-2.053 z m 81.682,2.955 c 0.189,0.259 0.376,0.52 0.561,0.783 -0.185,-0.263 -0.372,-0.524 -0.561,-0.783 z M 29.07,30.934 c -0.462,0.713 -0.906,1.437 -1.332,2.172 0.426,-0.735 0.87,-1.459 1.332,-2.172 z m 87.387,2.998 c 0.208,0.352 0.411,0.706 0.609,1.063 -0.198,-0.358 -0.401,-0.712 -0.609,-1.063 z m -90.002,1.414 c -0.395,0.766 -0.77,1.542 -1.125,2.328 0.356,-0.786 0.731,-1.562 1.125,-2.328 z m 92.258,3.045 c 0.198,0.427 0.39,0.856 0.576,1.289 -0.186,-0.433 -0.378,-0.862 -0.576,-1.289 z m -94.418,1.596 c -0.316,0.802 -0.612,1.612 -0.887,2.43 0.275,-0.818 0.571,-1.628 0.887,-2.43 z m 96.213,3.011 c 0.187,0.531 0.364,1.064 0.533,1.602 -0.169,-0.537 -0.347,-1.071 -0.533,-1.602 z M 22.602,44.84 c -0.234,0.829 -0.447,1.664 -0.639,2.504 0.192,-0.84 0.405,-1.675 0.639,-2.504 z m 99.255,2.943 c 0.151,0.618 0.29,1.238 0.418,1.861 -0.127,-0.622 -0.266,-1.243 -0.418,-1.861 z M 21.406,49.822 c -0.151,0.856 -0.281,1.715 -0.389,2.578 0.109,-0.862 0.238,-1.722 0.389,-2.578 z m 101.328,2.829 c 0.104,0.723 0.191,1.447 0.264,2.174 -0.072,-0.727 -0.16,-1.452 -0.264,-2.174 z M 20.713,54.904 c -0.136,1.46 -0.21,2.926 -0.221,4.393 0.011,-1.467 0.085,-2.933 0.221,-4.393 z m 107.711,0.436 0.035,4.041 c -0.413,-0.009 -3.462,-0.075 -5.23,-0.111 0,0.009 0,0.018 0,0.027 -0.007,1.878 -0.118,3.755 -0.33,5.621 -0.001,0.005 -0.001,0.009 -0.002,0.014 2.009,-0.013 5.129,-0.032 5.611,-0.035 l 0.035,4.078 7.939,-4.609 -0.004,-0.988 1.107,-0.006 3.215,3.73 1.641,-1.971 -2.59,-3.061 2.547,-2.896 -0.668,-0.729 -1.063,-1.16 -3.088,3.486 -1.131,0.004 -0.014,-0.979 -8.01,-4.456 0,0 z m -5.527,9.592 c -0.123,1.015 -0.276,2.025 -0.459,3.031 0.182,-1.006 0.335,-2.017 0.459,-3.031 z M 11.734,60.813 c -1.875,10e-4 -3.521,0.014 -4.643,0.033 -0.561,0.01 -0.986,0.021 -1.268,0.035 -0.141,0.007 -0.185,-0.004 -0.398,0.037 -0.054,0.011 -0.086,-0.021 -0.35,0.127 -0.066,0.036 -0.267,0.21 -0.268,0.211 0,0 -0.293,0.653 -0.293,0.654 0,0 0.218,0.759 0.219,0.76 0,0 0.221,0.225 0.295,0.271 0.297,0.187 0.328,0.141 0.385,0.152 0.056,0.011 0.09,0.015 0.123,0.02 l 15.332,1.859 c 0,-10e-4 0,-10e-4 0,-0.002 -0.16,-1.347 -0.267,-2.698 -0.32,-4.053 0,-0.004 0,-0.008 0,-0.012 -2.838,-0.06 -6.001,-0.093 -8.814,-0.092 z M 121.713,71.43 c -0.12,0.502 -0.247,1.002 -0.383,1.5 0.136,-0.498 0.263,-0.998 0.383,-1.5 z m -1.473,4.947 c -0.165,0.474 -0.337,0.945 -0.516,1.414 0.179,-0.469 0.351,-0.94 0.516,-1.414 z m -1.953,4.76 c -0.206,0.442 -0.419,0.882 -0.637,1.318 0.218,-0.436 0.431,-0.876 0.637,-1.318 z m -2.437,4.568 c -0.237,0.397 -0.479,0.792 -0.727,1.184 0.247,-0.392 0.489,-0.786 0.727,-1.184 z m -2.852,4.252 c -0.28,0.38 -0.566,0.755 -0.857,1.127 0.291,-0.372 0.577,-0.747 0.857,-1.127 z m -3.267,3.953 c -0.315,0.348 -0.635,0.692 -0.959,1.031 0.324,-0.338 0.643,-0.683 0.959,-1.031 z m -3.655,3.616 c -0.347,0.313 -0.698,0.622 -1.053,0.926 0.355,-0.304 0.707,-0.613 1.053,-0.926 z m -3.98,3.22 c -0.378,0.278 -0.761,0.552 -1.146,0.82 0.385,-0.268 0.768,-0.541 1.146,-0.82 z m -4.297,2.819 c -0.403,0.237 -0.81,0.47 -1.219,0.697 0.409,-0.228 0.816,-0.46 1.219,-0.697 z m -4.522,2.355 c -0.443,0.206 -0.89,0.405 -1.338,0.6 0.449,-0.195 0.895,-0.394 1.338,-0.6 z m -39.437,1.412 c 0.018,0.007 0.035,0.013 0.053,0.02 -0.018,-0.007 -0.036,-0.013 -0.053,-0.02 z m 34.701,0.485 c -0.478,0.167 -0.956,0.326 -1.438,0.479 0.482,-0.153 0.961,-0.312 1.438,-0.479 z m -29.883,1.058 c 0.077,0.02 0.155,0.039 0.232,0.059 -0.077,-0.02 -0.155,-0.039 -0.232,-0.059 z m 24.992,0.356 c -0.517,0.124 -1.036,0.241 -1.557,0.35 0.521,-0.109 1.041,-0.226 1.557,-0.35 z m -20.039,0.705 c 0.133,0.021 0.267,0.04 0.4,0.061 -0.133,-0.021 -0.266,-0.041 -0.4,-0.061 z m 15.061,0.213 c -0.564,0.078 -1.13,0.147 -1.697,0.207 0.567,-0.06 1.132,-0.129 1.697,-0.207 z m -10.029,0.355 c 0.68,0.048 1.36,0.081 2.041,0.102 -0.682,-0.021 -1.362,-0.054 -2.041,-0.102 z m 2.045,0.102 0.979,7.797 0.938,-7.764 c -0.248,0.011 -0.495,0.019 -0.742,0.025 -0.393,-0.014 -0.784,-0.034 -1.175,-0.058 z" /></g><g
     id="layer7"
     transform="translate(17.161955,66.243677)"
     inkscape:groupmode="layer"
     inkscape:label="ball shadow"
     style="display:inline"
     sodipodi:insensitive="true"><radialGradient
       id="circle44_1_"
       cx="-381.6835"
       cy="853.21991"
       r="60.169399"
       fx="-359.52609"
       fy="897.14252"
       gradientTransform="matrix(-0.9999,0.0164,0.0126,0.7709,-320.5784,-589.688)"
       gradientUnits="userSpaceOnUse"><stop
         offset="0.454"
         style="stop-color:#000000;stop-opacity:0"
         id="stop4516" /><stop
         offset="0.6871"
         style="stop-color:#000000;stop-opacity:0.1347"
         id="stop4518" /><stop
         offset="0.8037"
         style="stop-color:#000000;stop-opacity:0.2526"
         id="stop4520" /><stop
         offset="0.9509"
         style="stop-color:#000000;stop-opacity:0.49"
         id="stop4522" /></radialGradient><circle
       id="circle44"
       enable-background="new    "
       cx="71.777"
       cy="59.296001"
       r="51.368999"
       style="opacity:0.79000005;fill:url(#circle44_1_)" /></g><g
     inkscape:groupmode="layer"
     id="layer2"
     inkscape:label="text: powered"
     style="display:inline"
     transform="translate(20.63758,55.446012)"><g
       style="display:inline;fill:#2e597d;fill-opacity:1"
       id="g4579"
       transform="translate(-166.13158,53.079375)"><path
         d="m 158.338,98.146 c 0,-2.977 -0.096,-5.377 -0.191,-7.586 l 3.744,0 0.24,3.984 0.096,0 c 1.681,-2.832 4.465,-4.463 8.257,-4.463 5.664,0 9.889,4.752 9.889,11.76 0,8.354 -5.137,12.482 -10.608,12.482 -3.072,0 -5.761,-1.346 -7.153,-3.648 l -0.096,0 0,12.625 -4.177,0 0,-25.154 z m 4.177,6.192 c 0,0.625 0.048,1.201 0.192,1.729 0.768,2.928 3.312,4.945 6.336,4.945 4.465,0 7.057,-3.648 7.057,-8.977 0,-4.609 -2.448,-8.594 -6.912,-8.594 -2.881,0 -5.617,2.016 -6.385,5.186 -0.145,0.527 -0.288,1.15 -0.288,1.68 l 0,4.031 z"
         id="path4539"
         inkscape:connector-curvature="0"
         style="fill:#2e597d;fill-opacity:1" /><path
         d="m 204.084,101.986 c 0,8.594 -6.001,12.338 -11.569,12.338 -6.24,0 -11.137,-4.609 -11.137,-11.953 0,-7.729 5.137,-12.289 11.521,-12.289 6.672,0 11.185,4.848 11.185,11.904 z m -18.386,0.241 c 0,5.088 2.88,8.928 7.009,8.928 4.032,0 7.057,-3.791 7.057,-9.023 0,-3.938 -1.969,-8.881 -6.961,-8.881 -4.945,-0.001 -7.105,4.606 -7.105,8.976 z"
         id="path4541"
         inkscape:connector-curvature="0"
         style="fill:#2e597d;fill-opacity:1" /><path
         d="m 208.162,90.561 3.12,11.811 c 0.624,2.592 1.248,4.992 1.681,7.393 l 0.144,0 c 0.528,-2.354 1.296,-4.85 2.064,-7.346 l 3.792,-11.857 3.553,0 3.6,11.617 c 0.864,2.785 1.536,5.232 2.064,7.586 l 0.145,0 c 0.384,-2.354 1.008,-4.801 1.775,-7.537 l 3.313,-11.666 4.177,0 -7.489,23.234 -3.84,0 -3.553,-11.088 c -0.815,-2.594 -1.488,-4.896 -2.064,-7.633 l -0.096,0 c -0.576,2.783 -1.296,5.184 -2.112,7.68 l -3.744,11.041 -3.84,0 -7.009,-23.234 4.319,0 z"
         id="path4543"
         inkscape:connector-curvature="0"
         style="fill:#2e597d;fill-opacity:1" /><path
         d="m 241.09,102.947 c 0.096,5.711 3.696,8.064 7.969,8.064 3.024,0 4.896,-0.529 6.433,-1.201 l 0.768,3.025 c -1.487,0.672 -4.08,1.488 -7.776,1.488 -7.152,0 -11.425,-4.754 -11.425,-11.762 0,-7.008 4.128,-12.48 10.896,-12.48 7.633,0 9.602,6.623 9.602,10.896 0,0.863 -0.048,1.488 -0.145,1.969 l -16.322,0 z m 12.385,-3.025 c 0.049,-2.641 -1.104,-6.816 -5.856,-6.816 -4.32,0 -6.145,3.889 -6.48,6.816 l 12.336,0 z"
         id="path4545"
         inkscape:connector-curvature="0"
         style="fill:#2e597d;fill-opacity:1" /><path
         d="m 260.193,97.811 c 0,-2.736 -0.048,-5.09 -0.191,-7.25 l 3.696,0 0.191,4.609 0.145,0 c 1.056,-3.121 3.648,-5.088 6.48,-5.088 0.432,0 0.769,0.047 1.152,0.096 l 0,3.984 c -0.433,-0.096 -0.864,-0.096 -1.44,-0.096 -2.977,0 -5.088,2.207 -5.664,5.375 -0.097,0.576 -0.145,1.297 -0.145,1.969 l 0,12.385 -4.225,0 0,-15.984 z"
         id="path4547"
         inkscape:connector-curvature="0"
         style="fill:#2e597d;fill-opacity:1" /><path
         d="m 275.17,102.947 c 0.096,5.711 3.696,8.064 7.969,8.064 3.024,0 4.896,-0.529 6.433,-1.201 l 0.768,3.025 c -1.487,0.672 -4.08,1.488 -7.776,1.488 -7.152,0 -11.425,-4.754 -11.425,-11.762 0,-7.008 4.128,-12.48 10.896,-12.48 7.633,0 9.602,6.623 9.602,10.896 0,0.863 -0.048,1.488 -0.145,1.969 l -16.322,0 z m 12.385,-3.025 c 0.049,-2.641 -1.104,-6.816 -5.856,-6.816 -4.32,0 -6.145,3.889 -6.48,6.816 l 12.336,0 z"
         id="path4549"
         inkscape:connector-curvature="0"
         style="fill:#2e597d;fill-opacity:1" /><path
         d="m 314.291,79.713 0,28.082 c 0,2.064 0.096,4.416 0.191,6 l -3.744,0 -0.192,-4.031 -0.144,0 c -1.248,2.592 -4.032,4.561 -7.825,4.561 -5.616,0 -9.984,-4.754 -9.984,-11.811 -0.048,-7.729 4.801,-12.432 10.417,-12.432 3.601,0 5.952,1.68 7.009,3.504 l 0.096,0 0,-13.873 4.176,0 z m -4.177,20.305 c 0,-0.527 -0.048,-1.248 -0.192,-1.775 -0.624,-2.641 -2.928,-4.848 -6.096,-4.848 -4.369,0 -6.961,3.84 -6.961,8.928 0,4.705 2.352,8.594 6.864,8.594 2.832,0 5.425,-1.922 6.192,-5.041 0.145,-0.576 0.192,-1.152 0.192,-1.824 l 0,-4.034 z"
         id="path4551"
         inkscape:connector-curvature="0"
         style="fill:#2e597d;fill-opacity:1" /></g></g><g
     inkscape:groupmode="layer"
     id="layer1"
     inkscape:label="text: obspy"
     style="display:inline"
     transform="translate(20.63758,55.446012)"><g
       style="fill:#646565;fill-opacity:1"
       id="g4559"
       transform="translate(-166.13158,-68.244928)"><path
         inkscape:connector-curvature="0"
         d="m 193.952,44.156 c 0,13.859 -8.459,21.299 -18.779,21.299 -10.739,0 -18.179,-8.34 -18.179,-20.579 0,-12.84 7.92,-21.239 18.719,-21.239 11.1,0 18.239,8.46 18.239,20.519 z m -31.438,0.6 c 0,8.7 4.68,16.439 12.959,16.439 8.28,0 12.96,-7.62 12.96,-16.8 0,-8.1 -4.2,-16.499 -12.899,-16.499 -8.699,0 -13.02,8.041 -13.02,16.86 z"
         id="path4529"
         style="fill:#646565;fill-opacity:1" /><path
         inkscape:connector-curvature="0"
         d="m 200.554,22.197 5.22,0 0,18.239 0.12,0 c 1.859,-3.24 5.22,-5.28 9.899,-5.28 7.26,0 12.3,6 12.3,14.759 0,10.379 -6.6,15.54 -13.08,15.54 -4.199,0 -7.56,-1.62 -9.779,-5.4 l -0.12,0 -0.3,4.74 -4.5,0 c 0.12,-1.98 0.24,-4.92 0.24,-7.5 l 0,-35.098 z m 5.219,30.959 c 0,0.66 0.06,1.32 0.24,1.92 0.96,3.66 4.08,6.18 7.92,6.18 5.579,0 8.819,-4.5 8.819,-11.159 0,-5.82 -3,-10.8 -8.7,-10.8 -3.539,0 -6.899,2.52 -7.979,6.48 -0.18,0.66 -0.3,1.38 -0.3,2.22 l 0,5.159 z"
         id="path4531"
         style="fill:#646565;fill-opacity:1" /><path
         inkscape:connector-curvature="0"
         d="m 233.973,59.456 c 1.619,0.96 4.38,2.04 7.02,2.04 3.779,0 5.58,-1.86 5.58,-4.32 0,-2.52 -1.5,-3.84 -5.34,-5.28 -5.28,-1.92 -7.74,-4.74 -7.74,-8.22 0,-4.68 3.84,-8.52 10.02,-8.52 2.94,0 5.52,0.78 7.08,1.8 l -1.26,3.84 c -1.141,-0.72 -3.24,-1.74 -5.94,-1.74 -3.119,0 -4.8,1.8 -4.8,3.959 0,2.4 1.681,3.48 5.46,4.98 4.979,1.86 7.62,4.38 7.62,8.7 0,5.16 -4.021,8.76 -10.8,8.76 -3.18,0 -6.12,-0.84 -8.159,-2.04 l 1.259,-3.959 z"
         id="path4533"
         style="fill:#646565;fill-opacity:1" /><path
         inkscape:connector-curvature="0"
         d="m 258.632,24.837 c 2.521,-0.42 5.82,-0.78 10.02,-0.78 5.16,0 8.94,1.2 11.34,3.36 2.16,1.92 3.54,4.86 3.54,8.459 0,3.66 -1.08,6.54 -3.12,8.64 -2.819,2.94 -7.26,4.44 -12.359,4.44 -1.56,0 -3,-0.06 -4.2,-0.36 l 0,16.199 -5.22,0 0,-39.958 z m 5.22,19.499 c 1.141,0.3 2.58,0.42 4.32,0.42 6.3,0 10.14,-3.12 10.14,-8.58 0,-5.4 -3.84,-7.98 -9.54,-7.98 -2.279,0 -4.02,0.18 -4.92,0.42 l 0,15.72 z"
         id="path4535"
         style="fill:#646565;fill-opacity:1" /><path
         inkscape:connector-curvature="0"
         d="m 292.532,35.756 6.3,17.16 c 0.72,1.92 1.439,4.2 1.92,5.939 l 0.12,0 c 0.54,-1.74 1.14,-3.959 1.859,-6.06 l 5.76,-17.04 5.58,0 -7.92,20.699 c -3.779,9.96 -6.359,15 -9.959,18.179 -2.641,2.221 -5.16,3.12 -6.48,3.359 l -1.319,-4.379 c 1.319,-0.42 3.06,-1.26 4.619,-2.58 1.44,-1.14 3.181,-3.18 4.44,-5.88 0.24,-0.54 0.42,-0.96 0.42,-1.26 0,-0.3 -0.12,-0.72 -0.42,-1.38 l -10.68,-26.759 5.76,0 z"
         id="path4537"
         style="fill:#646565;fill-opacity:1" /></g></g><g
     id="layer5"
     transform="translate(17.161955,66.243677)"
     inkscape:groupmode="layer"
     inkscape:label="snake original path with stroke"
     display="none"
     style="display:none"><path
       id="path4620"
       inkscape:connector-curvature="0"
       sodipodi:nodetypes="cccccccccccccccccccccccccccscccccccccccccccccccccccccccccc"
       display="inline"
       stroke-miterlimit="10"
       d="m 140.918,59.188 -0.237,-0.26 -2.605,2.94 -2.713,0.012 -0.02,-1.432 -5.805,-3.229 0.027,3.284 c 0,0 -23.313,-0.476 -25.34,-0.536 -0.502,-0.018 -1.043,0.023 -2.162,-0.253 -3.957,-0.938 -7.769,-15.9 -7.769,-15.9 L 87.582,74.681 79.319,9.506 71.644,81.777 64.093,18.762 56.542,72.972 48.992,36.501 c 0,0 -6.042,19.921 -6.833,21.426 -0.199,0.375 -0.406,0.733 -0.629,1.066 -0.112,0.165 -0.228,0.333 -0.349,0.478 -0.097,0.118 -0.161,0.187 -0.242,0.271 -0.077,0.08 -0.153,0.15 -0.226,0.213 -0.049,0.039 -0.023,0.025 -0.107,0.087 -0.027,0.022 -0.084,0.059 -0.125,0.088 -0.183,0.123 -0.387,0.237 -0.606,0.344 -0.677,0.332 -1.673,0.657 -2.875,0.906 -1.202,0.252 -2.604,0.438 -4.107,0.562 -3.008,0.244 -6.412,0.24 -9.582,0.127 C 16.962,61.838 4.67,61.9 5.669,62.021 l 17.537,2.129 c 3.178,0.424 6.615,0.75 9.768,0.762 3.146,0.015 6.029,-0.301 8.005,-1.153 0.317,-0.135 0.637,-0.292 0.955,-0.483 0.323,-0.194 0.662,-0.457 0.929,-0.711 0.134,-0.125 0.276,-0.272 0.383,-0.388 0.089,-0.095 0.167,-0.187 0.248,-0.283 0.159,-0.192 0.307,-0.393 0.449,-0.599 0.563,-0.827 1.021,-1.732 1.438,-2.662 0.828,-1.867 2.771,-6.786 2.771,-6.786 l 8.39,44.884 7.551,-47.554 7.551,60.216 8.095,-67.112 7.006,53.038 8.39,-38.767 c 0.002,-0.016 1.101,4.308 3.724,6.151 0.238,0.178 0.994,0.591 1.645,0.801 0.337,0.109 0.68,0.199 1.023,0.259 0.441,0.071 0.695,0.075 0.99,0.095 0.564,0.029 1.094,0.043 1.619,0.055 2.09,0.041 25.461,-0.122 25.461,-0.122 l 0.028,3.284 5.753,-3.34 -0.004,-1.451 2.713,-0.014 2.697,3.131 0.219,-0.264 -2.605,-3.079 2.52,-2.87 z"
       style="display:inline;stroke:#000000;stroke-width:2.20000005;stroke-miterlimit:10" /></g></svg>