<?xml version="1.0" encoding="UTF-8" standalone="no"?>
<!-- Generator: Adobe Illustrator 15.1.0, SVG Export Plug-In . SVG Version: 6.00 Build 0)  -->

<svg
   xmlns:dc="http://purl.org/dc/elements/1.1/"
   xmlns:cc="http://creativecommons.org/ns#"
   xmlns:rdf="http://www.w3.org/1999/02/22-rdf-syntax-ns#"
   xmlns:svg="http://www.w3.org/2000/svg"
   xmlns="http://www.w3.org/2000/svg"
   xmlns:sodipodi="http://sodipodi.sourceforge.net/DTD/sodipodi-0.dtd"
   xmlns:inkscape="http://www.inkscape.org/namespaces/inkscape"
   version="1.1"
   id="Top_Layer"
   x="0px"
   y="0px"
   width="125"
   height="125"
   viewBox="0 0 125 125"
   enable-background="new 0 0 140.5 121"
   xml:space="preserve"
   inkscape:version="0.91 r13725"
   sodipodi:docname="obspy_logo_only_waveform_black.svg"
   inkscape:export-filename="/home/megies/git/obspy.website/logo/obspy_logo_only_waveform_highres_black.png"
   inkscape:export-xdpi="432"
   inkscape:export-ydpi="432"><metadata
     id="metadata4603"><rdf:RDF><cc:Work
         rdf:about=""><dc:format>image/svg+xml</dc:format><dc:type
           rdf:resource="http://purl.org/dc/dcmitype/StillImage" /><dc:title></dc:title></cc:Work></rdf:RDF></metadata><defs
     id="defs4601" /><sodipodi:namedview
     pagecolor="#ffffff"
     bordercolor="#666666"
     borderopacity="1"
     objecttolerance="10"
     gridtolerance="10"
     guidetolerance="10"
     inkscape:pageopacity="0"
     inkscape:pageshadow="2"
     inkscape:window-width="1600"
     inkscape:window-height="833"
     id="namedview4599"
     showgrid="false"
     inkscape:zoom="3.9008264"
     inkscape:cx="65.526415"
     inkscape:cy="62.971694"
     inkscape:window-x="0"
     inkscape:window-y="27"
     inkscape:window-maximized="1"
     inkscape:current-layer="Top_Layer"
     fit-margin-top="3.3"
     fit-margin-left="1.78"
     fit-margin-right="1.78"
     fit-margin-bottom="3.3" /><g
     id="g4593"
     transform="translate(-5.7610913,1.8571304)"><g
       id="g4595"><path
         stroke-miterlimit="10"
         d="m 127.47471,60.63 -0.238,-0.26 -2.605,2.941 -2.712,0.011 -0.02,-1.431 -5.805,-3.229 0.028,3.284 c 0,0 -13.17371,-0.476 -15.20171,-0.536 -0.503,-0.017 -1.043,0.024 -2.162,-0.253 -3.958,-0.938 -7.769,-15.9 -7.769,-15.9 L 84.278,76.124 76.013,10.947 68.338,83.218 60.787,20.203 53.236,74.413 45.686,37.942 c 0,0 -6.042,19.921 -6.833,21.426 -0.199,0.375 -0.406,0.733 -0.629,1.066 -0.112,0.165 -0.228,0.333 -0.349,0.478 -0.097,0.118 -0.161,0.187 -0.242,0.271 -0.077,0.08 -0.153,0.15 -0.226,0.212 -0.049,0.04 -0.023,0.025 -0.107,0.087 -0.027,0.022 -0.084,0.059 -0.125,0.088 -0.183,0.123 -0.387,0.238 -0.606,0.344 -0.677,0.332 -1.673,0.657 -2.875,0.906 -1.202,0.252 -3.289655,0.758445 -8.766172,0.945534 C 7.5143969,64.297789 8.6399468,64.59361 8.6399468,64.59361 c 0,0 1.7920202,0.64145 16.2727472,1.326261 6.333565,0.297903 9.951149,0.388485 12.760306,-0.720871 0.317,-0.135 0.637,-0.292 0.955,-0.484 0.323,-0.194 0.662,-0.457 0.929,-0.711 0.134,-0.124 0.276,-0.272 0.383,-0.387 0.089,-0.095 0.167,-0.186 0.248,-0.283 0.159,-0.192 0.307,-0.393 0.449,-0.599 0.563,-0.827 1.021,-1.732 1.438,-2.662 0.828,-1.867 2.771,-6.786 2.771,-6.786 l 8.39,44.518 7.551,-47.188 7.551,60.216 8.095,-67.112 7.006,53.037 8.39,-38.766 c 0.002,-0.016 1.101,4.307 3.724,6.152 0.237,0.177 0.993,0.59 1.644,0.8 0.337,0.109 0.679,0.199 1.024,0.259 0.441,0.071 0.694,0.075 0.989,0.095 0.565,0.029 1.094,0.042 1.62,0.055 2.09,0.04 15.32171,-0.123 15.32171,-0.123 l 0.029,3.284 5.753,-3.34 -0.004,-1.451 2.713,-0.013 2.697,3.13 0.219,-0.263 -2.606,-3.079 z"
         id="path4597"
         inkscape:connector-curvature="0"
         style="stroke:#000000;stroke-width:2.20000005;stroke-miterlimit:10"
         sodipodi:nodetypes="cccccccccccccccccccccccccccccccccccccccccccccccccccccccc" /></g></g></svg>